<svg xmlns="http://www.w3.org/2000/svg" xmlns:xlink="http://www.w3.org/1999/xlink" width="520" height="520" viewBox="0 0 520 520">
  <defs>
    <linearGradient id="linear-gradient" x1="0.5" x2="0.5" y2="1" gradientUnits="objectBoundingBox">
      <stop offset="0" stop-color="#ff63ed"/>
      <stop offset="1" stop-color="#ff9926"/>
    </linearGradient>
  </defs>
  <g id="Groupe_1332" data-name="Groupe 1332" transform="translate(23030 2758)">
    <rect id="Rectangle_12064" data-name="Rectangle 12064" width="520" height="520" transform="translate(-23030 -2758)" fill="#fff" opacity="0"/>
    <g id="flyer" transform="translate(-22921 -2837)">
      <path id="Tracé_785" data-name="Tracé 785" d="M0,137.744V540.72a16.737,16.737,0,0,0,16.744,16.744H284.65a16.737,16.737,0,0,0,16.744-16.744V137.744A16.737,16.737,0,0,0,284.65,121H16.744A16.737,16.737,0,0,0,0,137.744Zm51.344,105.68A16.745,16.745,0,0,1,64.866,232.03l48.924-7.116,21.894-44.346c5.625-11.446,24.4-11.446,30.022,0l21.9,44.346,48.924,7.116a16.737,16.737,0,0,1,9.288,28.548L210.4,295.1l8.355,48.728a16.737,16.737,0,0,1-24.283,17.647L150.7,338.478,106.923,361.47a16.739,16.739,0,0,1-24.283-17.647L91,295.1l-35.42-34.517A16.75,16.75,0,0,1,51.344,243.424Zm166.329,178.97a16.737,16.737,0,0,1-16.744,16.744H100.465a16.744,16.744,0,0,1,0-33.488H200.93A16.737,16.737,0,0,1,217.674,422.395Zm-150.7,51.349H234.418a16.744,16.744,0,1,1,0,33.488H66.977a16.744,16.744,0,1,1,0-33.488Zm0,0" transform="translate(0 0)" stroke="#ff4848" stroke-width="4" fill="url(#linear-gradient)"/>
      <path id="Tracé_786" data-name="Tracé 786" d="M114.725,281.156l-4.1,23.987,21.536-11.315a16.647,16.647,0,0,1,15.567,0l21.536,11.315-4.1-23.987a16.736,16.736,0,0,1,4.805-14.817l17.416-16.971-24.052-3.5a16.713,16.713,0,0,1-12.61-9.157l-10.775-21.815L129.167,236.71a16.723,16.723,0,0,1-12.606,9.157l-24.057,3.5,17.416,16.975A16.736,16.736,0,0,1,114.725,281.156Zm0,0" transform="translate(10.756 10.918)" stroke="#ff4848" stroke-width="4" fill="url(#linear-gradient)"/>
    </g>
  </g>
</svg>
