<svg xmlns="http://www.w3.org/2000/svg" xmlns:xlink="http://www.w3.org/1999/xlink" width="800" height="203.149" viewBox="0 0 800 203.149">
  <defs>
    <linearGradient id="linear-gradient" x1="0.5" x2="0.5" y2="1" gradientUnits="objectBoundingBox">
      <stop offset="0" stop-color="#ff63ed"/>
      <stop offset="1" stop-color="#ff9926"/>
    </linearGradient>
    <filter id="Rectangle_255" x="40.611" y="28.46" width="176.471" height="174.689" filterUnits="userSpaceOnUse">
      <feOffset dy="3" input="SourceAlpha"/>
      <feGaussianBlur stdDeviation="3" result="blur"/>
      <feFlood flood-color="#ff7f00" flood-opacity="0.161"/>
      <feComposite operator="in" in2="blur"/>
      <feComposite in="SourceGraphic"/>
    </filter>
    <linearGradient id="linear-gradient-2" x1="2.789" y1="-1.548" x2="3.468" y2="-1.426" gradientUnits="objectBoundingBox">
      <stop offset="0" stop-color="#ffe548"/>
      <stop offset="0.176" stop-color="#ffde50"/>
      <stop offset="0.445" stop-color="#ffca65"/>
      <stop offset="0.771" stop-color="#ffaa87"/>
      <stop offset="1" stop-color="#ff90a4"/>
    </linearGradient>
    <linearGradient id="linear-gradient-3" x1="0.499" y1="0.772" x2="0.413" y2="1.077" gradientUnits="objectBoundingBox">
      <stop offset="0" stop-color="#fba5c2" stop-opacity="0"/>
      <stop offset="0.386" stop-color="#fca0ba" stop-opacity="0.384"/>
      <stop offset="0.974" stop-color="#ff91a5" stop-opacity="0.973"/>
      <stop offset="1" stop-color="#ff90a4"/>
    </linearGradient>
    <linearGradient id="linear-gradient-4" x1="0.511" y1="0.663" x2="0.406" y2="1.043" xlink:href="#linear-gradient-3"/>
    <linearGradient id="linear-gradient-5" x1="0.541" y1="0.499" x2="0.397" y2="0.973" xlink:href="#linear-gradient-3"/>
    <linearGradient id="linear-gradient-6" x1="0.565" y1="0.374" x2="0.389" y2="0.772" xlink:href="#linear-gradient-2"/>
    <linearGradient id="linear-gradient-7" x1="0.37" y1="0.715" x2="0.658" y2="0.272" gradientUnits="objectBoundingBox">
      <stop offset="0" stop-color="#ffd00d" stop-opacity="0"/>
      <stop offset="1" stop-color="#db722b"/>
    </linearGradient>
    <linearGradient id="linear-gradient-8" x1="0.535" y1="0.498" x2="0.336" y2="-0.006" xlink:href="#linear-gradient-7"/>
    <linearGradient id="linear-gradient-9" x1="0.6" y1="0.575" x2="0.323" y2="0.193" gradientUnits="objectBoundingBox">
      <stop offset="0" stop-color="#a34a9e" stop-opacity="0"/>
      <stop offset="1" stop-color="#343168"/>
    </linearGradient>
    <linearGradient id="linear-gradient-10" x1="2.271" y1="-1.655" x2="2.183" y2="-2.645" gradientUnits="objectBoundingBox">
      <stop offset="0" stop-color="#a34a9e"/>
      <stop offset="1" stop-color="#343168"/>
    </linearGradient>
    <linearGradient id="linear-gradient-11" x1="-12.171" y1="4.477" x2="-11.761" y2="4.696" gradientUnits="objectBoundingBox">
      <stop offset="0" stop-color="#3fa9f5"/>
      <stop offset="1" stop-color="#666ad6"/>
    </linearGradient>
    <linearGradient id="linear-gradient-12" x1="-21.586" y1="-11.156" x2="-21.273" y2="-10.873" xlink:href="#linear-gradient-10"/>
    <linearGradient id="linear-gradient-13" x1="0.637" y1="0.357" x2="-0.243" y2="1.099" gradientUnits="objectBoundingBox">
      <stop offset="0" stop-color="#ff4974"/>
      <stop offset="0.45" stop-color="#fe4773"/>
      <stop offset="0.629" stop-color="#fc406d"/>
      <stop offset="0.761" stop-color="#f73464"/>
      <stop offset="0.868" stop-color="#f12257"/>
      <stop offset="0.961" stop-color="#e80c46"/>
      <stop offset="1" stop-color="#e4003d"/>
    </linearGradient>
    <linearGradient id="linear-gradient-14" x1="0.64" y1="0.193" x2="0.247" y2="1.873" gradientUnits="objectBoundingBox">
      <stop offset="0" stop-color="#c4f8b6"/>
      <stop offset="1" stop-color="#3b8eac"/>
    </linearGradient>
    <radialGradient id="radial-gradient" cx="0.039" cy="0.166" r="0.894" gradientTransform="matrix(1.268, 0.002, -0.003, 1, -0.014, 0)" xlink:href="#linear-gradient-13"/>
    <linearGradient id="linear-gradient-15" x1="1.205" y1="1.07" x2="-0.581" y2="0.058" gradientUnits="objectBoundingBox">
      <stop offset="0" stop-color="#e4003d" stop-opacity="0"/>
      <stop offset="0.343" stop-color="#cd0e2d" stop-opacity="0.341"/>
      <stop offset="1" stop-color="#972e07"/>
    </linearGradient>
    <linearGradient id="linear-gradient-16" x1="0.641" y1="0.455" x2="0.944" y2="0.774" xlink:href="#linear-gradient-15"/>
    <linearGradient id="linear-gradient-17" x1="0.382" y1="0.268" x2="0.912" y2="0.969" xlink:href="#linear-gradient-11"/>
    <linearGradient id="linear-gradient-18" x1="0.381" y1="0.262" x2="0.912" y2="0.963" xlink:href="#linear-gradient-11"/>
    <linearGradient id="linear-gradient-19" x1="0.377" y1="0.265" x2="0.907" y2="0.966" xlink:href="#linear-gradient-10"/>
    <linearGradient id="linear-gradient-20" x1="0.396" y1="0.258" x2="0.926" y2="0.959" xlink:href="#linear-gradient-14"/>
    <linearGradient id="linear-gradient-21" x1="0.394" y1="0.256" x2="0.924" y2="0.958" xlink:href="#linear-gradient-2"/>
  </defs>
  <g id="Groupe_1339" data-name="Groupe 1339" transform="translate(24023 3291)">
    <rect id="Rectangle_12057" data-name="Rectangle 12057" width="800" height="200" transform="translate(-24023 -3291)" fill="#fff" opacity="0"/>
    <g id="Groupe_1337" data-name="Groupe 1337" transform="translate(-24528.727 -3626.701)">
      <g id="Groupe_238" data-name="Groupe 238" transform="translate(762.679 364.534)">
        <path id="Tracé_605" data-name="Tracé 605" d="M8043.589,8208.5c0-14.6,9.736-25.691,24.789-25.691a26.028,26.028,0,0,1,15.055,4.324v7.212c-4.146-8.563-9.376-10.636-14.152-10.636-8.926,0-14.874,9.2-14.874,24.7,0,9.107,2.795,24.969,14.691,24.969,4.6,0,8.564-2.253,8.564-7.571v-14.245c-4.149-1.08-8.564-2.25-12.62.271v-.9c7.572-4.781,16.316,3.6,22.445-.09l.09.9v13.878c0,7.752-11.808,8.651-19.2,8.651C8051.879,8234.271,8043.589,8221.379,8043.589,8208.5Z" transform="translate(-8043.589 -8173.43)" fill="#080808"/>
        <path id="Tracé_606" data-name="Tracé 606" d="M8081.042,8195.826h1.9c3.692,0,8.021.722,8.021,6.219V8234.5h-1.982c-3.7,0-7.935-.726-7.935-6.22Zm5.05-15.865a4.868,4.868,0,0,1,0,9.736,4.868,4.868,0,1,1,0-9.736Z" transform="translate(-8028.76 -8174.552)" fill="#080808"/>
        <path id="Tracé_607" data-name="Tracé 607" d="M8096.01,8197.4v-4.5c0-9.557,5.409-16.59,15.235-16.679a26.379,26.379,0,0,1,13.882,4.417v7.214c-2.435-4.96-6.221-10.548-12.348-10.548-7.754.091-6.854,9.646-6.854,15.054v5.047h6.943v.9l-6.943-.091v37.768h-1.985c-3.693,0-7.931-.72-7.931-6.218V8198.3H8091.5v-.9Z" transform="translate(-8024.618 -8176.037)" fill="#080808"/>
        <path id="Tracé_608" data-name="Tracé 608" d="M8124.459,8225.072c0,2.706.45,4.779,3.876,4.779a6.919,6.919,0,0,0,4.057-1.443,13.324,13.324,0,0,1-9.827,4.868c-4.324,0-8.022-2.521-8.022-8.564V8197.22c0-2.523,0-2.523-2.343-2.523h-2.163v-.9c4.328,0,4.506-.091,4.506-5.228v-3.245l1.441.451c3.516,1.17,8.476,2.434,8.476,7.931v.091h7.213v.9h-7.213Z" transform="translate(-8017.281 -8172.434)" fill="#080808"/>
        <path id="Tracé_609" data-name="Tracé 609" d="M8128.732,8191.328h6.943c3.786,0,4.961,1.08,6.669,4.235l13.072,23.98,12.62-28.216h.99l-17.754,39.571c-3.069,7.028-10.367,17.851-18.572,17.851-5.678,0-8.652-4.148-8.652-8.2,0-5.861,5.407-12.261,16.313-12.261a18.4,18.4,0,0,1,9.918,2.7Zm11.721,37.859c-5.676,0-13.882,2.164-13.882,8.924,0,3.064,2.437,6.044,7.845,6.044,6.94,0,13.611-7.4,15.864-13.079A28.159,28.159,0,0,0,8140.453,8229.188Z" transform="translate(-8011.733 -8170.057)" fill="#080808"/>
        <path id="Tracé_610" data-name="Tracé 610" d="M8157.563,8201.051c0-7.576,6.94-10.37,14.245-10.37,5.315,0,10.905,1.442,14.147,3.424v7.213a17.663,17.663,0,0,0-15.142-9.737c-3.605,0-6.49,1.807-6.49,4.686,0,7.033,24.609,12.982,24.609,24.342,0,7.66-7.3,10.547-15.235,10.547a30.629,30.629,0,0,1-16.135-4.33v-7.213c3.424,6.227,9.646,10.732,16.855,10.639,2.977,0,7.124-.9,7.124-4.6C8181.543,8217,8157.563,8212.043,8157.563,8201.051Z" transform="translate(-7998.463 -8170.309)" fill="#080808"/>
        <path id="Tracé_611" data-name="Tracé 611" d="M8211.678,8208.177c0-6.581-3.333-9.282-6.939-9.282-2.794,0-5.408,1.533-8.383,4.056l-1.173.989v32.094H8193.2c-3.694,0-7.931-.634-7.931-6.223v-40.832c0-6.49,4.146-12.891,11.18-12.891,4.957,0,9.553,3.694,9.553,11.625a15.572,15.572,0,0,1-4.147,10.55,17.98,17.98,0,0,1,7.932-1.8c7.483,0,11.809,3.784,11.809,11.631v27.942H8219.7c-3.7,0-8.022-.634-8.022-6.223Zm-16.5-5.407.99-.812a29.21,29.21,0,0,1,3.426-2.433c2.794-2.165,5.5-7.3,5.5-11.72,0-4.959-2.7-7.212-5.315-7.212-2.346,0-4.6,2.164-4.6,6.221Z" transform="translate(-7987.498 -8176.088)" fill="#080808"/>
        <path id="Tracé_612" data-name="Tracé 612" d="M8215.166,8210.961c0-10.992,6.67-20.28,19.918-20.28s19.924,9.288,19.924,20.28-6.584,20.2-19.924,20.2C8221.836,8231.156,8215.166,8221.961,8215.166,8210.961Zm10.814-.09c0,10.547,3.066,19.381,9.1,19.381,6.133,0,9.109-8.834,9.109-19.381,0-10.639-3.068-19.29-9.109-19.29S8225.98,8200.232,8225.98,8210.871Z" transform="translate(-7975.661 -8170.309)" fill="#080808"/>
        <path id="Tracé_613" data-name="Tracé 613" d="M8258.27,8224.276a6,6,0,0,0,6.312,6.044c9.374,0,12.08-12.707,12.08-19.832,0-13.432-7.754-21.092-16.408-13.883l-1.983,1.714v48.226h-1.982c-3.7,0-7.93-.721-7.93-6.219v-48.766h1.889c3.61,0,7.668.627,8.023,5.5l1.809-1.439c4.416-3.7,7.66-4.961,11.534-4.87,10.1,0,15.954,9.015,15.954,18.388,0,13.073-8.921,22.086-22.081,22.086a18.052,18.052,0,0,1-7.216-1.442Z" transform="translate(-7962.52 -8170.282)" fill="#080808"/>
        <path id="Tracé_614" data-name="Tracé 614" d="M8283.821,8213.09a4.146,4.146,0,1,1,0,8.291,4.146,4.146,0,1,1,0-8.291Z" transform="translate(-8279.676 -8094.901)" fill="#080808"/>
        <path id="Tracé_615" data-name="Tracé 615" d="M8300.762,8224.276a6,6,0,0,0,6.312,6.044c9.376,0,12.081-12.707,12.081-19.832,0-13.432-7.758-21.092-16.409-13.883l-1.983,1.714v48.226h-1.982c-3.7,0-7.932-.721-7.932-6.219v-48.766h1.89c3.607,0,7.668.627,8.024,5.5l1.806-1.439c4.413-3.7,7.66-4.961,11.536-4.87,10.095,0,15.953,9.015,15.953,18.388,0,13.073-8.921,22.086-22.085,22.086a18.028,18.028,0,0,1-7.21-1.442Z" transform="translate(-8275.253 -8103.747)" fill="#080808"/>
        <path id="Tracé_616" data-name="Tracé 616" d="M8334.61,8197.17l-1.171.994v32.088h-1.986c-3.7,0-7.93-.723-7.93-6.221v-32.45h1.893c3.606,0,7.665.631,8.023,5.5l.991-.9c3.331-2.707,7.393-5.5,12.8-5.5,2.431,0,4.5.63,6.037,2.793v5.861c-4.149-5.051-7.3-6.219-10.009-6.219C8340.47,8193.117,8337.584,8194.648,8334.61,8197.17Z" transform="translate(-8262.318 -8103.773)" fill="#080808"/>
        <path id="Tracé_617" data-name="Tracé 617" d="M8345.479,8210.961c0-10.992,6.671-20.28,19.921-20.28s19.918,9.288,19.918,20.28-6.576,20.2-19.918,20.2C8352.15,8231.156,8345.479,8221.961,8345.479,8210.961Zm10.818-.09c0,10.547,3.06,19.381,9.1,19.381,6.13,0,9.107-8.834,9.107-19.381,0-10.639-3.07-19.29-9.107-19.29S8356.3,8200.232,8356.3,8210.871Z" transform="translate(-8253.624 -8103.773)" fill="#080808"/>
      </g>
      <g id="Groupe_245" data-name="Groupe 245" transform="translate(555.338 344.701)">
        <g transform="matrix(1, 0, 0, 1, -49.61, -9)" filter="url(#Rectangle_255)">
          <g id="Rectangle_255-2" data-name="Rectangle 255" transform="translate(49.61 34.46)" stroke="#f9511d" stroke-width="2" fill="url(#linear-gradient)">
            <rect width="158.47" height="156.69" rx="22" stroke="none"/>
            <rect x="1" y="1" width="156.47" height="154.69" rx="21" fill="none"/>
          </g>
        </g>
        <g id="confetti_1_" data-name="confetti (1)" transform="translate(23.907 0)">
          <path id="Tracé_511" data-name="Tracé 511" d="M126.66,219.726a5.586,5.586,0,0,1-2.063,1.288l-.812.244S14.354,265.41,5.845,256.871s36.042-117.81,36.042-117.81l.247-.811a5.591,5.591,0,0,1,1.3-2.058c6.807-6.782,30.959,6.417,53.942,29.484S133.467,212.943,126.66,219.726Z" transform="translate(-4.765 -90.196)" fill="url(#linear-gradient-2)"/>
          <path id="Tracé_512" data-name="Tracé 512" d="M132.944,240.321c-5.759,2.284-17.291,6.8-30.907,11.864-8.328,3.1-17.437,6.393-26.482,9.5-7.9,2.716-15.761,5.293-23,7.464-4.974-4.18-9.917-8.714-14.76-13.574s-9.358-9.82-13.52-14.809c2.2-7.231,4.8-15.079,7.547-22.973,3.141-9.034,6.471-18.13,9.6-26.447,5.109-13.6,9.672-25.113,11.976-30.864,14.683,7.962,30.373,19.737,45.147,34.565S125.035,225.609,132.944,240.321Z" transform="translate(-17.857 -107.69)" fill="url(#linear-gradient-3)"/>
          <path id="Tracé_513" data-name="Tracé 513" d="M155.146,219.724a5.584,5.584,0,0,1-2.063,1.29l-.811.242s-1.415.571-3.934,1.57c-5.759,2.284-17.291,6.8-30.907,11.864-8.328,3.1-17.437,6.394-26.482,9.5A226.226,226.226,0,0,1,47.217,200.3c3.141-9.034,6.471-18.13,9.6-26.447,5.109-13.6,9.672-25.113,11.976-30.864,1.008-2.516,1.584-3.928,1.584-3.928l.245-.81a5.59,5.59,0,0,1,1.3-2.058c6.808-6.783,30.957,6.418,53.942,29.483S161.954,212.942,155.146,219.724Z" transform="translate(-33.252 -90.196)" fill="url(#linear-gradient-4)"/>
          <path id="Tracé_514" data-name="Tracé 514" d="M174.724,219.725a5.585,5.585,0,0,1-2.063,1.29l-.811.242s-1.415.571-3.934,1.57c-5.759,2.284-17.291,6.8-30.907,11.864a212.789,212.789,0,0,1-33.293-27.445,212.823,212.823,0,0,1-27.324-33.392c5.109-13.6,9.672-25.113,11.976-30.864,1.008-2.516,1.584-3.928,1.584-3.928l.245-.81a5.59,5.59,0,0,1,1.3-2.058c6.808-6.783,30.957,6.418,53.942,29.483S181.532,212.942,174.724,219.725Z" transform="translate(-52.83 -90.196)" fill="url(#linear-gradient-5)"/>
          <path id="Tracé_515" data-name="Tracé 515" d="M201.857,219.727c-6.809,6.784-30.96-6.416-53.943-29.483s-36.1-47.266-29.287-54.05,30.96,6.416,53.943,29.483S208.666,212.943,201.857,219.727Z" transform="translate(-79.964 -90.196)" fill="url(#linear-gradient-6)"/>
          <path id="Tracé_516" data-name="Tracé 516" d="M211.629,223.559c-5.03,5.012-25.4-7.278-45.5-27.45s-32.314-40.588-27.285-45.6,25.4,7.278,45.5,27.45S216.659,218.548,211.629,223.559Z" transform="translate(-93.978 -100.247)" fill="url(#linear-gradient-7)"/>
          <path id="Tracé_517" data-name="Tracé 517" d="M238.251,225.655c6.807-6.783-6.3-30.982-29.288-54.049-13.477-13.526-27.353-23.656-37.9-28.357a24.374,24.374,0,0,0,1.385,2.25,18.942,18.942,0,0,0,2.912,3.291l5.836,5.877c-.673.305-1.291.547-1.811.73a1.978,1.978,0,0,0-1.281,2.258l2.065,10.258a2.566,2.566,0,0,0,1.614,1.9l56.03,56.235A5.1,5.1,0,0,0,238.251,225.655Z" transform="translate(-116.356 -96.126)" fill="url(#linear-gradient-8)"/>
          <path id="Tracé_518" data-name="Tracé 518" d="M260.608,269.469l5.731,6.851,26.7,26.8a6.864,6.864,0,0,0,4.826-1.773c5.95-5.928-3.313-25.155-21.081-45.3a70.8,70.8,0,0,0-15.689,9.061A3.043,3.043,0,0,0,260.608,269.469Z" transform="translate(-175.969 -171.812)" fill="url(#linear-gradient-9)"/>
          <path id="Tracé_519" data-name="Tracé 519" d="M266.339,265.186l-5.731-6.851a3.044,3.044,0,0,1,.485-4.37,70.777,70.777,0,0,1,77.94-5.235A3.043,3.043,0,0,1,340.1,253l-4.768,7.553a3.04,3.04,0,0,1-4.06,1.026,55.774,55.774,0,0,0-60.768,4.087A3.039,3.039,0,0,1,266.339,265.186Z" transform="translate(-175.969 -160.677)" fill="url(#linear-gradient-10)"/>
          <path id="Tracé_520" data-name="Tracé 520" d="M113.438,64.593l-5.2-5.355a8.608,8.608,0,0,1-1.692-9.3,5.525,5.525,0,0,1,8.528-2.246,8.608,8.608,0,0,1,3.112,8.93l-1.89,7.223A1.694,1.694,0,0,1,113.438,64.593Z" transform="translate(-72.593 -31.213)" fill="url(#linear-gradient-11)"/>
          <path id="Tracé_521" data-name="Tracé 521" d="M71.236,89.77,63.847,88.7a8.608,8.608,0,0,1-7.012-6.346,5.525,5.525,0,0,1,5.392-6.978,8.608,8.608,0,0,1,7.91,5.183l2.9,6.879A1.694,1.694,0,0,1,71.236,89.77Z" transform="translate(-39.596 -50.575)" fill="url(#linear-gradient-12)"/>
          <path id="Tracé_522" data-name="Tracé 522" d="M398.54,378.811l7.436-.673a8.607,8.607,0,0,1,8.294,4.542,5.525,5.525,0,0,1-3.622,8.04,8.608,8.608,0,0,1-8.9-3.2l-4.423-6.015A1.694,1.694,0,0,1,398.54,378.811Z" transform="translate(-267.966 -253.723)" fill="url(#linear-gradient-13)"/>
          <path id="Tracé_523" data-name="Tracé 523" d="M404.454,332.481l5.486-5.066a8.608,8.608,0,0,1,9.344-1.454,5.525,5.525,0,0,1,2.028,8.582,8.608,8.608,0,0,1-9.007,2.884l-7.173-2.074A1.7,1.7,0,0,1,404.454,332.481Z" transform="translate(-272.605 -218.206)" fill="url(#linear-gradient-14)"/>
          <path id="Tracé_524" data-name="Tracé 524" d="M178.378,73.729a2.564,2.564,0,0,1-3.294-1.941L173.019,61.53a1.978,1.978,0,0,1,1.281-2.258A22.021,22.021,0,0,0,178.46,57.3a21.336,21.336,0,0,1-11.1-7.923c-4.789-6.909-5.164-14.7-1-20.833a18.074,18.074,0,0,1,18.928-7.37c7.878,1.819,13.411,8.711,14.8,18.439q.087.607.154,1.209a12.873,12.873,0,0,0,4.472-4.093c2.476-3.957,2.711-9.863.6-15.045a13.816,13.816,0,0,0-5.743-7.069,2.592,2.592,0,0,1-1.316-2.885l2.366-9.756a2.562,2.562,0,0,1,3.39-1.8c6.622,2.536,12.07,8.176,15.2,15.853,3.931,9.648,3.251,20.631-1.774,28.665-3.976,6.356-11.309,11.1-19.789,13.1a28.493,28.493,0,0,1-8.494,10.347A36.3,36.3,0,0,1,178.378,73.729Zm2.941-38a3.183,3.183,0,0,0-2.542,1.236c-.758,1.118.249,2.9.917,3.865.916,1.321,3.048,2.307,5.734,2.749q-.058-.9-.193-1.841c-.479-3.351-1.722-5.573-3.324-5.943a2.646,2.646,0,0,0-.592-.066Z" transform="translate(-111.271 -0.001)" fill="url(#radial-gradient)"/>
          <path id="Tracé_525" data-name="Tracé 525" d="M280.68,134.878l-10.755-10.794s.687,10.423-2.6,16.966A35.651,35.651,0,0,0,280.68,134.878Z" transform="translate(-180.954 -83.265)" fill="url(#linear-gradient-15)"/>
          <path id="Tracé_526" data-name="Tracé 526" d="M179.7,118.231a5.978,5.978,0,0,1-1.184-2.853l-15.024-.027a20.352,20.352,0,0,0,3.877,11.428,21.332,21.332,0,0,0,11.1,7.923s7.7-2.336,6.968-13.722c-2.686-.441-4.819-1.427-5.735-2.749Z" transform="translate(-111.274 -77.405)" fill="url(#linear-gradient-16)"/>
          <path id="Tracé_527" data-name="Tracé 527" d="M268.482,204.4a29.582,29.582,0,0,0-8.717,8.769,1.3,1.3,0,0,1-2.18,0,29.581,29.581,0,0,0-8.685-8.8,1.3,1.3,0,0,1,0-2.165,29.587,29.587,0,0,0,8.717-8.769,1.3,1.3,0,0,1,2.18,0,29.585,29.585,0,0,0,8.685,8.8A1.3,1.3,0,0,1,268.482,204.4Z" transform="translate(-168.2 -129.403)" fill="url(#linear-gradient-17)"/>
          <path id="Tracé_528" data-name="Tracé 528" d="M462.341,190.46a29.583,29.583,0,0,0-8.717,8.769,1.3,1.3,0,0,1-2.18,0,29.577,29.577,0,0,0-8.685-8.8,1.3,1.3,0,0,1,0-2.165,29.577,29.577,0,0,0,8.717-8.769,1.3,1.3,0,0,1,2.181,0,29.58,29.58,0,0,0,8.685,8.8A1.3,1.3,0,0,1,462.341,190.46Z" transform="translate(-298.287 -120.049)" fill="url(#linear-gradient-18)"/>
          <path id="Tracé_529" data-name="Tracé 529" d="M371.555,35.625a29.574,29.574,0,0,0-8.717,8.769,1.3,1.3,0,0,1-2.18,0,29.584,29.584,0,0,0-8.685-8.8,1.3,1.3,0,0,1,0-2.165,29.582,29.582,0,0,0,8.717-8.769,1.3,1.3,0,0,1,2.18,0,29.583,29.583,0,0,0,8.685,8.8A1.3,1.3,0,0,1,371.555,35.625Z" transform="translate(-237.366 -16.149)" fill="url(#linear-gradient-19)"/>
          <path id="Tracé_530" data-name="Tracé 530" d="M372.877,148.785a21.566,21.566,0,0,0-6.355,6.392.948.948,0,0,1-1.589,0,21.561,21.561,0,0,0-6.331-6.415.948.948,0,0,1,0-1.578,21.569,21.569,0,0,0,6.355-6.392.948.948,0,0,1,1.589,0,21.569,21.569,0,0,0,6.331,6.415A.948.948,0,0,1,372.877,148.785Z" transform="translate(-241.92 -94.186)" fill="url(#linear-gradient-20)"/>
          <path id="Tracé_531" data-name="Tracé 531" d="M404.355,88.8A21.568,21.568,0,0,0,398,95.188a.948.948,0,0,1-1.589,0,21.558,21.558,0,0,0-6.331-6.415.948.948,0,0,1,0-1.578,21.571,21.571,0,0,0,6.355-6.392.948.948,0,0,1,1.589,0,21.57,21.57,0,0,0,6.331,6.415A.948.948,0,0,1,404.355,88.8Z" transform="translate(-263.042 -53.931)" fill="url(#linear-gradient-21)"/>
        </g>
      </g>
    </g>
  </g>
</svg>
