<svg xmlns="http://www.w3.org/2000/svg" xmlns:xlink="http://www.w3.org/1999/xlink" width="520" height="520" viewBox="0 0 520 520">
  <defs>
    <linearGradient id="linear-gradient" x1="0.5" x2="0.5" y2="1" gradientUnits="objectBoundingBox">
      <stop offset="0" stop-color="#ff63ed"/>
      <stop offset="1" stop-color="#ff9926"/>
    </linearGradient>
  </defs>
  <g id="Groupe_1296" data-name="Groupe 1296" transform="translate(23325 3192)">
    <rect id="Rectangle_12053" data-name="Rectangle 12053" width="520" height="520" transform="translate(-23325 -3192)" fill="#fff" opacity="0"/>
    <path id="sms" d="M279.733,31.26H76.71C34.417,31.26,0,66.429,0,109.646v77.646c0,43.218,34.417,78.386,76.71,78.386H205.036l93.288,76.548V263.317c33.743-8.593,58.12-39.661,58.12-76.025V109.646C356.444,66.429,322.027,31.26,279.733,31.26ZM82.084,181.951c-9.083,0-17.176-1.98-22.419-4.819l3.829-15.468c3.97,2.415,12.2,5.254,18.59,5.254,6.527,0,9.225-2.273,9.225-5.82s-2.132-5.254-10.214-7.952c-14.337-4.829-19.874-12.629-19.732-20.864,0-12.912,11.074-22.7,28.239-22.7,8.093,0,15.338,1.838,19.591,3.97l-3.829,14.9a33.99,33.99,0,0,0-15.044-3.981c-5.254,0-8.235,2.132-8.235,5.678,0,3.263,2.7,4.971,11.215,7.952,13.195,4.536,18.731,11.215,18.873,21.43C112.172,172.444,101.957,181.951,82.084,181.951ZM230.1,180.537h-21V142.791c0-10.084-3.274-15.9-10.225-15.9-4.96,0-8.518,3.4-9.932,7.528a18.062,18.062,0,0,0-.848,5.537v40.585h-21V141.649c0-8.8-3.122-14.761-9.943-14.761-5.526,0-8.8,4.264-10.073,7.81a14.33,14.33,0,0,0-.848,5.4v40.444h-21V133.274c0-8.648-.283-16.034-.566-22.137h18.166l.99,9.366h.424c2.98-4.394,9.083-10.921,21-10.921,8.942,0,16.034,4.536,19.014,11.77h.283a30.981,30.981,0,0,1,8.942-8.365,25.051,25.051,0,0,1,13.206-3.4c13.336,0,23.42,9.366,23.42,30.077v40.877Zm35.592,1.414c-9.083,0-17.176-1.98-22.419-4.819l3.829-15.468c3.97,2.415,12.2,5.254,18.59,5.254,6.527,0,9.225-2.273,9.225-5.82s-2.132-5.254-10.215-7.952c-14.337-4.829-19.874-12.629-19.732-20.864,0-12.912,11.074-22.7,28.239-22.7,8.093,0,15.327,1.838,19.591,3.97l-3.829,14.9a33.99,33.99,0,0,0-15.044-3.981c-5.254,0-8.235,2.132-8.235,5.678,0,3.263,2.7,4.971,11.215,7.952,13.195,4.536,18.731,11.215,18.873,21.43C295.779,172.444,285.564,181.951,265.69,181.951Z" transform="translate(-23243 -3118.26)" fill="url(#linear-gradient)"/>
  </g>
</svg>
