<svg xmlns="http://www.w3.org/2000/svg" xmlns:xlink="http://www.w3.org/1999/xlink" width="520" height="520" viewBox="0 0 520 520">
  <defs>
    <linearGradient id="linear-gradient" x1="0.5" x2="0.5" y2="1" gradientUnits="objectBoundingBox">
      <stop offset="0" stop-color="#ff63ed"/>
      <stop offset="1" stop-color="#ff9926"/>
    </linearGradient>
  </defs>
  <g id="Groupe_1297" data-name="Groupe 1297" transform="translate(23932 2723)">
    <rect id="Rectangle_12051" data-name="Rectangle 12051" width="520" height="520" transform="translate(-23932 -2723)" fill="#fff" opacity="0"/>
    <g id="Groupe_1294" data-name="Groupe 1294" transform="translate(-23865 -2591)">
      <g id="games" transform="translate(0 0)">
        <path id="Tracé_771" data-name="Tracé 771" d="M350.911,54.194c-50.9-83.626-127.576-25.446-127.576-25.446-4.973,3.758-14.142,6.848-20.373,6.863l-20.538.014c-6.23.007-15.4-3.083-20.366-6.841,0,0-76.684-58.194-127.591,25.432-50.893,83.6-30.383,174.638-30.383,174.638,3.593,22.292,15.436,37.167,37.785,35.3,22.284-1.861,70.654-60.033,70.654-60.033,4-4.793,12.367-8.71,18.583-8.71l123.128-.022c6.223,0,14.588,3.916,18.576,8.71,0,0,48.377,58.172,70.7,60.033s34.192-13.021,37.763-35.3C381.265,228.833,401.811,137.805,350.911,54.194Zm-204.5,68.067h-26.4v25.446a24.609,24.609,0,0,1-14.243,4.161c-8.638-.129-12.547-4.657-12.547-4.657V122.269H68.286s-3.112-3.191-3.945-11.591a26.594,26.594,0,0,1,3.442-15.192H94.192v-26.4A28.7,28.7,0,0,1,107.436,66.4a34.919,34.919,0,0,1,13.546,3.183l-.108,25.9H145.81s4.355,5.591,4.714,12.346S146.414,122.262,146.414,122.262Zm121.1,29a20.9,20.9,0,1,1,20.9-20.9A20.867,20.867,0,0,1,267.515,151.265Zm0-57.5a20.894,20.894,0,1,1,20.9-20.89A20.861,20.861,0,0,1,267.515,93.769Zm52.042,30.865a20.9,20.9,0,1,1,20.9-20.9A20.863,20.863,0,0,1,319.558,124.633Z" transform="translate(0 -9.052)" fill="url(#linear-gradient)"/>
      </g>
    </g>
  </g>
</svg>
