<svg xmlns="http://www.w3.org/2000/svg" xmlns:xlink="http://www.w3.org/1999/xlink" width="520" height="520" viewBox="0 0 520 520">
  <defs>
    <linearGradient id="linear-gradient" x1="0.5" x2="0.5" y2="1" gradientUnits="objectBoundingBox">
      <stop offset="0" stop-color="#ff63ed"/>
      <stop offset="1" stop-color="#ff9926"/>
    </linearGradient>
  </defs>
  <g id="Groupe_1298" data-name="Groupe 1298" transform="translate(22846 3141)">
    <rect id="Rectangle_12054" data-name="Rectangle 12054" width="520" height="520" transform="translate(-22846 -3141)" fill="#fff" opacity="0"/>
    <g id="pie-graph" transform="translate(-22783 -3078)">
      <path id="Tracé_774" data-name="Tracé 774" d="M36.739,9.5A10.054,10.054,0,0,0,25.25,19.457V101.42a10.064,10.064,0,0,0,7.533,9.74,97.667,97.667,0,0,1,69.924,69.924,10.064,10.064,0,0,0,9.74,7.533H194.41a10.054,10.054,0,0,0,9.956-11.489C191.98,90.815,123.052,21.887,36.739,9.5Z" transform="translate(189.388 -9.39)" fill="url(#linear-gradient)"/>
      <g id="Groupe_1078" data-name="Groupe 1078" transform="translate(0 0.006)">
        <path id="Tracé_775" data-name="Tracé 775" d="M85.426,130.1a97.083,97.083,0,0,1,36.765-18.952,10.058,10.058,0,0,0,7.52-9.734V19.452a10.072,10.072,0,0,0-11.483-9.963A196.1,196.1,0,0,0,14.135,58.809Z" transform="translate(51.391 -9.39)" fill="url(#linear-gradient)"/>
        <path id="Tracé_776" data-name="Tracé 776" d="M400.646,166.727a10.04,10.04,0,0,0-7.6-3.472H311.085a10.058,10.058,0,0,0-9.734,7.52A97.249,97.249,0,1,1,131.734,85.329L60.54,14.134C28.641,49.527,9.25,96.159,9.25,146.487c0,109.107,88.762,197.87,197.869,197.87,97.847,0,182.057-72.917,195.891-169.619a10.052,10.052,0,0,0-2.365-8.011Z" transform="translate(-9.25 49.504)" fill="url(#linear-gradient)"/>
      </g>
    </g>
  </g>
</svg>
