<svg xmlns="http://www.w3.org/2000/svg" xmlns:xlink="http://www.w3.org/1999/xlink" width="520" height="520" viewBox="0 0 520 520">
  <defs>
    <linearGradient id="linear-gradient" x1="0.5" x2="0.5" y2="1" gradientUnits="objectBoundingBox">
      <stop offset="0" stop-color="#ff63ed"/>
      <stop offset="1" stop-color="#ff9926"/>
    </linearGradient>
  </defs>
  <g id="Groupe_1303" data-name="Groupe 1303" transform="translate(23932 2145)">
    <g id="Groupe_1301" data-name="Groupe 1301" transform="translate(-1086 996)" opacity="0">
      <rect id="Rectangle_12054" data-name="Rectangle 12054" width="520" height="520" transform="translate(-22846 -3141)" fill="#fff"/>
    </g>
    <path id="settings_1_" data-name="settings (1)" d="M307.808,127.477,282.3,124.233a128.233,128.233,0,0,0-7.721-18.645L290.33,85.3a20.171,20.171,0,0,0-1.656-26.855L267.3,37.073a20.227,20.227,0,0,0-26.936-1.723L220.105,51.1a127.776,127.776,0,0,0-18.659-7.721L198.2,17.912A20.324,20.324,0,0,0,178.038,0h-30.4a20.322,20.322,0,0,0-20.165,17.872l-3.243,25.512A126.3,126.3,0,0,0,105.574,51.1L85.3,35.35a20.187,20.187,0,0,0-26.855,1.656L37.073,58.365a20.231,20.231,0,0,0-1.723,26.95L51.1,105.588a126.743,126.743,0,0,0-7.721,18.645l-25.471,3.243A20.324,20.324,0,0,0,0,147.642v30.4A20.322,20.322,0,0,0,17.872,198.2l25.512,3.243A128.237,128.237,0,0,0,51.1,220.092L35.35,240.379a20.171,20.171,0,0,0,1.656,26.855l21.373,21.373a20.241,20.241,0,0,0,26.936,1.71l20.274-15.755a125.275,125.275,0,0,0,18.645,7.721l3.243,25.457a20.325,20.325,0,0,0,20.165,17.94h30.4A20.322,20.322,0,0,0,198.2,307.809l3.243-25.512a128.238,128.238,0,0,0,18.645-7.721l20.287,15.755a20.171,20.171,0,0,0,26.855-1.656L288.606,267.3a20.213,20.213,0,0,0,1.723-26.937l-15.755-20.274a125.279,125.279,0,0,0,7.721-18.645l25.457-3.243a20.324,20.324,0,0,0,17.912-20.165v-30.4a20.3,20.3,0,0,0-17.858-20.165ZM162.84,230.69a67.85,67.85,0,1,1,67.85-67.85,67.927,67.927,0,0,1-67.85,67.85Z" transform="translate(-23835 -2048)" fill="url(#linear-gradient)"/>
  </g>
</svg>
