<svg xmlns="http://www.w3.org/2000/svg" xmlns:xlink="http://www.w3.org/1999/xlink" width="319.445" height="103.435" viewBox="0 0 319.445 103.435">
  <defs>
    <linearGradient id="linear-gradient" x1="0.5" x2="0.5" y2="1" gradientUnits="objectBoundingBox">
      <stop offset="0" stop-color="#ff63ed"/>
      <stop offset="1" stop-color="#ff9926"/>
    </linearGradient>
    <linearGradient id="linear-gradient-12" x1="1" y1="0.5" x2="0" y2="0.5" gradientUnits="objectBoundingBox">
      <stop offset="0" stop-color="#fff" stop-opacity="0"/>
      <stop offset="0.65" stop-color="#fff" stop-opacity="0.961"/>
      <stop offset="1" stop-color="#fff"/>
    </linearGradient>
    <filter id="Rectangle_255" x="0" y="6.78" width="97.549" height="96.655" filterUnits="userSpaceOnUse">
      <feOffset dy="3" input="SourceAlpha"/>
      <feGaussianBlur stdDeviation="3" result="blur"/>
      <feFlood flood-color="#ff7f00" flood-opacity="0.161"/>
      <feComposite operator="in" in2="blur"/>
      <feComposite in="SourceGraphic"/>
    </filter>
    <linearGradient id="linear-gradient-14" x1="2.789" y1="-1.548" x2="3.468" y2="-1.426" gradientUnits="objectBoundingBox">
      <stop offset="0" stop-color="#ffe548"/>
      <stop offset="0.176" stop-color="#ffde50"/>
      <stop offset="0.445" stop-color="#ffca65"/>
      <stop offset="0.771" stop-color="#ffaa87"/>
      <stop offset="1" stop-color="#ff90a4"/>
    </linearGradient>
    <linearGradient id="linear-gradient-15" x1="0.499" y1="0.772" x2="0.413" y2="1.077" gradientUnits="objectBoundingBox">
      <stop offset="0" stop-color="#fba5c2" stop-opacity="0"/>
      <stop offset="0.386" stop-color="#fca0ba" stop-opacity="0.384"/>
      <stop offset="0.974" stop-color="#ff91a5" stop-opacity="0.973"/>
      <stop offset="1" stop-color="#ff90a4"/>
    </linearGradient>
    <linearGradient id="linear-gradient-16" x1="0.511" y1="0.663" x2="0.406" y2="1.043" xlink:href="#linear-gradient-15"/>
    <linearGradient id="linear-gradient-17" x1="0.541" y1="0.499" x2="0.397" y2="0.973" xlink:href="#linear-gradient-15"/>
    <linearGradient id="linear-gradient-18" x1="0.565" y1="0.374" x2="0.389" y2="0.772" xlink:href="#linear-gradient-14"/>
    <linearGradient id="linear-gradient-19" x1="0.37" y1="0.715" x2="0.658" y2="0.272" gradientUnits="objectBoundingBox">
      <stop offset="0" stop-color="#ffd00d" stop-opacity="0"/>
      <stop offset="1" stop-color="#db722b"/>
    </linearGradient>
    <linearGradient id="linear-gradient-20" x1="0.535" y1="0.498" x2="0.336" y2="-0.006" xlink:href="#linear-gradient-19"/>
    <linearGradient id="linear-gradient-21" x1="0.6" y1="0.575" x2="0.323" y2="0.193" gradientUnits="objectBoundingBox">
      <stop offset="0" stop-color="#a34a9e" stop-opacity="0"/>
      <stop offset="1" stop-color="#343168"/>
    </linearGradient>
    <linearGradient id="linear-gradient-22" x1="2.271" y1="-1.655" x2="2.183" y2="-2.645" gradientUnits="objectBoundingBox">
      <stop offset="0" stop-color="#a34a9e"/>
      <stop offset="1" stop-color="#343168"/>
    </linearGradient>
    <linearGradient id="linear-gradient-23" x1="-12.171" y1="4.477" x2="-11.761" y2="4.696" gradientUnits="objectBoundingBox">
      <stop offset="0" stop-color="#3fa9f5"/>
      <stop offset="1" stop-color="#666ad6"/>
    </linearGradient>
    <linearGradient id="linear-gradient-24" x1="-21.586" y1="-11.156" x2="-21.273" y2="-10.873" xlink:href="#linear-gradient-22"/>
    <linearGradient id="linear-gradient-25" x1="0.637" y1="0.357" x2="-0.243" y2="1.099" gradientUnits="objectBoundingBox">
      <stop offset="0" stop-color="#ff4974"/>
      <stop offset="0.45" stop-color="#fe4773"/>
      <stop offset="0.629" stop-color="#fc406d"/>
      <stop offset="0.761" stop-color="#f73464"/>
      <stop offset="0.868" stop-color="#f12257"/>
      <stop offset="0.961" stop-color="#e80c46"/>
      <stop offset="1" stop-color="#e4003d"/>
    </linearGradient>
    <linearGradient id="linear-gradient-26" x1="0.64" y1="0.193" x2="0.247" y2="1.873" gradientUnits="objectBoundingBox">
      <stop offset="0" stop-color="#c4f8b6"/>
      <stop offset="1" stop-color="#3b8eac"/>
    </linearGradient>
    <radialGradient id="radial-gradient" cx="0.039" cy="0.166" r="0.894" gradientTransform="matrix(1.268, 0.002, -0.003, 1, -0.014, 0)" xlink:href="#linear-gradient-25"/>
    <linearGradient id="linear-gradient-27" x1="1.205" y1="1.07" x2="-0.581" y2="0.058" gradientUnits="objectBoundingBox">
      <stop offset="0" stop-color="#e4003d" stop-opacity="0"/>
      <stop offset="0.343" stop-color="#cd0e2d" stop-opacity="0.341"/>
      <stop offset="1" stop-color="#972e07"/>
    </linearGradient>
    <linearGradient id="linear-gradient-28" x1="0.641" y1="0.455" x2="0.944" y2="0.774" xlink:href="#linear-gradient-27"/>
    <linearGradient id="linear-gradient-29" x1="0.382" y1="0.268" x2="0.912" y2="0.969" xlink:href="#linear-gradient-23"/>
    <linearGradient id="linear-gradient-30" x1="0.381" y1="0.262" x2="0.912" y2="0.963" xlink:href="#linear-gradient-23"/>
    <linearGradient id="linear-gradient-31" x1="0.377" y1="0.265" x2="0.907" y2="0.966" xlink:href="#linear-gradient-22"/>
    <linearGradient id="linear-gradient-32" x1="0.396" y1="0.258" x2="0.926" y2="0.959" xlink:href="#linear-gradient-26"/>
    <linearGradient id="linear-gradient-33" x1="0.394" y1="0.256" x2="0.924" y2="0.958" xlink:href="#linear-gradient-14"/>
  </defs>
  <g id="Groupe_1397" data-name="Groupe 1397" transform="translate(-10.324 -24.15)">
    <g id="spinning-wheel" transform="translate(94.125 39.019)">
      <g id="Groupe_1105" data-name="Groupe 1105" transform="translate(0.131 0)">
        <g id="Groupe_1104" data-name="Groupe 1104">
          <path id="XMLID_234_" d="M162.133,295.863a6.445,6.445,0,0,1-.629-.26l-12.344,12.344a23.412,23.412,0,0,0,12.972,5.373Z" transform="translate(-127.819 -253.272)" stroke="#f9511d" stroke-width="2" fill="url(#linear-gradient)"/>
          <path id="XMLID_233_" d="M313.068,270H295.611a6.447,6.447,0,0,1-.26.629l12.343,12.343A23.413,23.413,0,0,0,313.068,270Z" transform="translate(-253.075 -231.335)" stroke="#f9511d" stroke-width="2" fill="url(#linear-gradient)"/>
          <path id="XMLID_232_" d="M270.376,295.6a6.406,6.406,0,0,1-.629.26v17.457a23.41,23.41,0,0,0,12.972-5.373Z" transform="translate(-231.137 -253.271)" stroke="#f9511d" stroke-width="2" fill="url(#linear-gradient)"/>
          <path id="XMLID_231_" d="M223.856.468a37.008,37.008,0,0,0-12.01.044L217.953,12.3Z" transform="translate(-181.528 0)" stroke="#f9511d" stroke-width="2" fill="url(#linear-gradient)"/>
          <path id="XMLID_230_" d="M95.8,282.972l12.344-12.344a6.385,6.385,0,0,1-.26-.629H90.427A23.412,23.412,0,0,0,95.8,282.972Z" transform="translate(-77.496 -231.335)" stroke="#f9511d" stroke-width="2" fill="url(#linear-gradient)"/>
          <path id="XMLID_229_" d="M108.144,161.758,95.8,149.415a23.41,23.41,0,0,0-5.373,12.972h17.456A6.454,6.454,0,0,1,108.144,161.758Z" transform="translate(-77.496 -128.018)" stroke="#f9511d" stroke-width="2" fill="url(#linear-gradient)"/>
          <path id="XMLID_228_" d="M269.747,96.98v12.9a6.448,6.448,0,0,1,.629.26l12.342-12.342a23.716,23.716,0,0,0-10.84-5.084Z" transform="translate(-231.137 -79.433)" stroke="#f9511d" stroke-width="2" fill="url(#linear-gradient)"/>
          <path id="XMLID_227_" d="M46.778,10.016l-3.924,7.867a27.924,27.924,0,1,1-12.671.035L26.13,10.1C.369,17.348-9.037,51.557,10.772,70.92c13.593,14.167,38.05,14.166,51.642,0,19.892-19.454,10.319-53.809-15.636-60.9Z" transform="translate(-0.131 -8.582)" stroke="#f9511d" stroke-width="2" fill="url(#linear-gradient)"/>
          <path id="XMLID_226_" d="M307.693,149.415,295.35,161.758a6.409,6.409,0,0,1,.26.629h17.457A23.41,23.41,0,0,0,307.693,149.415Z" transform="translate(-253.074 -128.018)" stroke="#f9511d" stroke-width="2" fill="url(#linear-gradient)"/>
          <path id="XMLID_225_" d="M162.145,97.09l-2.214-4.273a23.732,23.732,0,0,0-10.757,5.069l12.342,12.342a6.419,6.419,0,0,1,.629-.26V97.09Z" transform="translate(-127.831 -79.525)" stroke="#f9511d" stroke-width="2" fill="url(#linear-gradient)"/>
          <path id="XMLID_224_" d="M241.9,244.38a2.148,2.148,0,1,0-2.148-2.148A2.15,2.15,0,0,0,241.9,244.38Z" transform="translate(-205.433 -205.715)" stroke="#f9511d" stroke-width="2" fill="url(#linear-gradient)"/>
        </g>
      </g>
    </g>
    <text id="The_Wheel" data-name="The Wheel" transform="translate(195.77 83.799)" fill="#5d5d5d" font-size="26" font-family="NunitoSans-Bold, Nunito Sans" font-weight="700"><tspan x="0" y="0">The Wheel</tspan></text>
    <rect id="Rectangle_11938" data-name="Rectangle 11938" width="52" height="88" transform="translate(83 31)" fill="url(#linear-gradient-12)"/>
    <g id="Groupe_1084" data-name="Groupe 1084" transform="translate(19.324 24.15)">
      <g transform="matrix(1, 0, 0, 1, -9, 0)" filter="url(#Rectangle_255)">
        <g id="Rectangle_255-2" data-name="Rectangle 255" transform="translate(9 12.78)" stroke="#f9511d" stroke-width="2" fill="url(#linear-gradient)">
          <rect width="79.548" height="78.655" rx="12" stroke="none"/>
          <rect x="1" y="1" width="77.548" height="76.655" rx="11" fill="none"/>
        </g>
      </g>
      <g id="confetti_1_" data-name="confetti (1)" transform="translate(12.001 0)">
        <path id="Tracé_511" data-name="Tracé 511" d="M65.954,177.238a2.8,2.8,0,0,1-1.036.647l-.407.122s-54.932,22.164-59.2,17.877S23.4,136.746,23.4,136.746l.124-.407a2.807,2.807,0,0,1,.65-1.033c3.417-3.4,15.541,3.221,27.078,14.8S69.371,173.833,65.954,177.238Z" transform="translate(-4.765 -112.217)" fill="url(#linear-gradient-14)"/>
        <path id="Tracé_512" data-name="Tracé 512" d="M78.824,200.56c-2.891,1.146-8.68,3.415-15.515,5.955-4.18,1.554-8.753,3.209-13.293,4.769-3.968,1.364-7.911,2.657-11.546,3.747-2.5-2.1-4.978-4.374-7.409-6.814s-4.7-4.929-6.787-7.434c1.1-3.63,2.411-7.569,3.789-11.532,1.577-4.535,3.248-9.1,4.818-13.276,2.565-6.826,4.855-12.606,6.012-15.493a100.448,100.448,0,0,1,22.663,17.351A100.448,100.448,0,0,1,78.824,200.56Z" transform="translate(-21.053 -133.982)" fill="url(#linear-gradient-15)"/>
        <path id="Tracé_513" data-name="Tracé 513" d="M101.395,177.237a2.8,2.8,0,0,1-1.036.648l-.407.121s-.71.286-1.975.788c-2.891,1.146-8.68,3.415-15.515,5.955-4.18,1.554-8.753,3.209-13.293,4.769a113.561,113.561,0,0,1-21.953-22.033c1.577-4.535,3.248-9.1,4.818-13.276,2.565-6.826,4.855-12.606,6.012-15.493.506-1.263.8-1.972.8-1.972l.123-.407a2.806,2.806,0,0,1,.651-1.033c3.417-3.4,15.54,3.222,27.078,14.8S104.812,173.832,101.395,177.237Z" transform="translate(-40.207 -112.216)" fill="url(#linear-gradient-16)"/>
        <path id="Tracé_514" data-name="Tracé 514" d="M125.753,177.238a2.8,2.8,0,0,1-1.036.647l-.407.121s-.71.287-1.975.788c-2.891,1.146-8.68,3.415-15.515,5.955a110.9,110.9,0,0,1-30.428-30.539c2.565-6.826,4.855-12.606,6.012-15.493.506-1.263.8-1.972.8-1.972l.123-.407a2.806,2.806,0,0,1,.651-1.033c3.417-3.4,15.54,3.222,27.078,14.8S129.17,173.833,125.753,177.238Z" transform="translate(-64.565 -112.217)" fill="url(#linear-gradient-17)"/>
        <path id="Tracé_515" data-name="Tracé 515" d="M159.511,177.239c-3.418,3.405-15.541-3.221-27.078-14.8s-18.119-23.727-14.7-27.132,15.541,3.221,27.078,14.8S162.929,173.834,159.511,177.239Z" transform="translate(-98.323 -112.217)" fill="url(#linear-gradient-18)"/>
        <path id="Tracé_516" data-name="Tracé 516" d="M174.817,186.622c-2.525,2.516-12.751-3.654-22.84-13.779s-16.221-20.374-13.7-22.89,12.751,3.654,22.84,13.779S177.342,184.106,174.817,186.622Z" transform="translate(-115.759 -124.721)" fill="url(#linear-gradient-19)"/>
        <path id="Tracé_517" data-name="Tracé 517" d="M204.79,184.615c3.417-3.4-3.165-15.552-14.7-27.131-6.765-6.79-13.731-11.875-19.026-14.235a12.233,12.233,0,0,0,.7,1.129,9.51,9.51,0,0,0,1.462,1.652l2.93,2.95c-.338.153-.648.274-.909.366a.993.993,0,0,0-.643,1.133l1.037,5.149a1.288,1.288,0,0,0,.81.952L204.57,184.81A2.559,2.559,0,0,0,204.79,184.615Z" transform="translate(-143.601 -119.594)" fill="url(#linear-gradient-20)"/>
        <path id="Tracé_518" data-name="Tracé 518" d="M260.255,262.781l2.877,3.439,13.4,13.451a3.446,3.446,0,0,0,2.423-.89c2.987-2.976-1.663-12.627-10.582-22.742a35.539,35.539,0,0,0-7.876,4.548A1.527,1.527,0,0,0,260.255,262.781Z" transform="translate(-217.768 -213.759)" fill="url(#linear-gradient-21)"/>
        <path id="Tracé_519" data-name="Tracé 519" d="M263.131,252.367l-2.877-3.439a1.528,1.528,0,0,1,.243-2.194,35.528,35.528,0,0,1,39.124-2.628,1.527,1.527,0,0,1,.534,2.142l-2.393,3.792a1.526,1.526,0,0,1-2.038.515,28,28,0,0,0-30.5,2.052A1.526,1.526,0,0,1,263.131,252.367Z" transform="translate(-217.768 -199.905)" fill="url(#linear-gradient-22)"/>
        <path id="Tracé_520" data-name="Tracé 520" d="M109.656,55.589,107.044,52.9a4.321,4.321,0,0,1-.849-4.671,2.773,2.773,0,0,1,4.281-1.128,4.321,4.321,0,0,1,1.562,4.483l-.949,3.626A.85.85,0,0,1,109.656,55.589Z" transform="translate(-89.153 -38.833)" fill="url(#linear-gradient-23)"/>
        <path id="Tracé_521" data-name="Tracé 521" d="M63.982,82.6l-3.709-.539a4.321,4.321,0,0,1-3.52-3.185,2.773,2.773,0,0,1,2.707-3.5,4.321,4.321,0,0,1,3.971,2.6l1.458,3.453A.85.85,0,0,1,63.982,82.6Z" transform="translate(-48.099 -62.923)" fill="url(#linear-gradient-24)"/>
        <path id="Tracé_522" data-name="Tracé 522" d="M397.771,378.46l3.733-.338a4.321,4.321,0,0,1,4.164,2.28,2.773,2.773,0,0,1-1.818,4.036,4.321,4.321,0,0,1-4.467-1.608l-2.22-3.02A.85.85,0,0,1,397.771,378.46Z" transform="translate(-332.226 -315.668)" fill="url(#linear-gradient-25)"/>
        <path id="Tracé_523" data-name="Tracé 523" d="M404.182,328.843l2.754-2.543a4.321,4.321,0,0,1,4.691-.73,2.773,2.773,0,0,1,1.018,4.308,4.321,4.321,0,0,1-4.521,1.448l-3.6-1.041A.851.851,0,0,1,404.182,328.843Z" transform="translate(-337.997 -271.48)" fill="url(#linear-gradient-26)"/>
        <path id="Tracé_524" data-name="Tracé 524" d="M170.961,37.011a1.287,1.287,0,0,1-1.654-.974l-1.037-5.149a.993.993,0,0,1,.643-1.133A11.054,11.054,0,0,0,171,28.763a10.71,10.71,0,0,1-5.571-3.977c-2.4-3.468-2.592-7.378-.5-10.458a9.073,9.073,0,0,1,9.5-3.7c3.954.913,6.732,4.373,7.43,9.256q.044.3.077.607a6.462,6.462,0,0,0,2.245-2.054,8.605,8.605,0,0,0,.3-7.552A6.935,6.935,0,0,0,181.6,7.336a1.3,1.3,0,0,1-.661-1.448l1.188-4.9a1.286,1.286,0,0,1,1.7-.906,13.823,13.823,0,0,1,7.629,7.958,16.108,16.108,0,0,1-.891,14.389,15.963,15.963,0,0,1-9.934,6.576,14.3,14.3,0,0,1-4.264,5.194A18.22,18.22,0,0,1,170.961,37.011Zm1.476-19.077a1.6,1.6,0,0,0-1.276.62c-.38.561.125,1.457.46,1.94a4.4,4.4,0,0,0,2.878,1.38q-.029-.45-.1-.924c-.241-1.682-.864-2.8-1.669-2.983a1.328,1.328,0,0,0-.3-.033Z" transform="translate(-137.275 -0.001)" fill="url(#radial-gradient)"/>
        <path id="Tracé_525" data-name="Tracé 525" d="M274.03,129.5l-5.4-5.419s.345,5.232-1.3,8.516A17.9,17.9,0,0,0,274.03,129.5Z" transform="translate(-223.97 -103.594)" fill="url(#linear-gradient-27)"/>
        <path id="Tracé_526" data-name="Tracé 526" d="M171.624,116.8a3,3,0,0,1-.594-1.432l-7.542-.014a10.216,10.216,0,0,0,1.946,5.737,10.708,10.708,0,0,0,5.571,3.977s3.865-1.173,3.5-6.888a4.4,4.4,0,0,1-2.879-1.38Z" transform="translate(-137.278 -96.303)" fill="url(#linear-gradient-28)"/>
        <path id="Tracé_527" data-name="Tracé 527" d="M258.441,198.643a14.85,14.85,0,0,0-4.376,4.4.653.653,0,0,1-1.094,0,14.849,14.849,0,0,0-4.36-4.418.653.653,0,0,1,0-1.087,14.851,14.851,0,0,0,4.376-4.4.653.653,0,0,1,1.095,0,14.851,14.851,0,0,0,4.36,4.418A.653.653,0,0,1,258.441,198.643Z" transform="translate(-208.102 -160.996)" fill="url(#linear-gradient-29)"/>
        <path id="Tracé_528" data-name="Tracé 528" d="M452.3,184.7a14.849,14.849,0,0,0-4.376,4.4.653.653,0,0,1-1.095,0,14.847,14.847,0,0,0-4.36-4.418.653.653,0,0,1,0-1.087,14.847,14.847,0,0,0,4.376-4.4.653.653,0,0,1,1.095,0,14.848,14.848,0,0,0,4.36,4.418A.653.653,0,0,1,452.3,184.7Z" transform="translate(-369.949 -149.358)" fill="url(#linear-gradient-30)"/>
        <path id="Tracé_529" data-name="Tracé 529" d="M361.514,29.868a14.845,14.845,0,0,0-4.376,4.4.653.653,0,0,1-1.095,0,14.85,14.85,0,0,0-4.36-4.418.653.653,0,0,1,0-1.087,14.85,14.85,0,0,0,4.376-4.4.653.653,0,0,1,1.095,0,14.85,14.85,0,0,0,4.36,4.418A.653.653,0,0,1,361.514,29.868Z" transform="translate(-294.154 -20.091)" fill="url(#linear-gradient-31)"/>
        <path id="Tracé_530" data-name="Tracé 530" d="M365.558,144.589a10.826,10.826,0,0,0-3.19,3.209.476.476,0,0,1-.8,0,10.823,10.823,0,0,0-3.178-3.22.476.476,0,0,1,0-.792,10.828,10.828,0,0,0,3.19-3.209.476.476,0,0,1,.8,0,10.828,10.828,0,0,0,3.178,3.22A.476.476,0,0,1,365.558,144.589Z" transform="translate(-299.82 -117.181)" fill="url(#linear-gradient-32)"/>
        <path id="Tracé_531" data-name="Tracé 531" d="M397.036,84.6a10.826,10.826,0,0,0-3.19,3.209.476.476,0,0,1-.8,0,10.822,10.822,0,0,0-3.178-3.22.476.476,0,0,1,0-.792,10.828,10.828,0,0,0,3.19-3.209.476.476,0,0,1,.8,0,10.828,10.828,0,0,0,3.178,3.22A.476.476,0,0,1,397.036,84.6Z" transform="translate(-326.1 -67.098)" fill="url(#linear-gradient-33)"/>
      </g>
    </g>
    <line id="Ligne_162" data-name="Ligne 162" y2="56" transform="translate(178.5 47.5)" fill="none" stroke="#707070" stroke-width="1"/>
  </g>
</svg>
